<?xml version="1.0" encoding="UTF-8"?>
<svg width="256px" height="256px" viewBox="0 0 256 256" version="1.1" xmlns="http://www.w3.org/2000/svg" xmlns:xlink="http://www.w3.org/1999/xlink">
    <title>normal/prod_256 copy</title>
    <g id="normal/prod_256-copy" stroke="none" stroke-width="1" fill="none" fill-rule="evenodd">
        <g id="Group-2">
            <rect id="Rectangle" fill="#FFFFFF" x="0" y="0" width="256" height="256"></rect>
            <g id="Group" transform="translate(45.462069, 45.462069)">
                <path d="M82.537931,1.42108547e-14 C98.6265571,1.42108547e-14 111.668966,13.0424084 111.668966,29.1310345 C111.668966,39.3789758 106.377291,48.3909803 98.3773169,53.5836724 C86.6257858,61.463319 75.0540709,56.4210555 65.6845801,65.7905462 C56.4684478,75.0066786 56.6670081,90.2677438 65.6845801,99.2853158 C75.047686,108.648422 86.6100157,103.619408 98.3525785,111.475508 C106.36668,116.666821 111.668966,125.686617 111.668966,135.944828 C111.668966,152.033454 98.6265571,165.075862 82.537931,165.075862 C74.493618,165.075862 67.2108594,161.81526 61.939179,156.54358 L61.5058911,156.10313 C47.4480577,141.574224 57.0710822,127.643605 47.2516694,117.824193 C37.4322566,108.00478 23.5016382,117.627804 8.97273186,103.569971 L8.553,103.157 L8.88570083,103.484176 C3.40671644,98.1874078 7.10542736e-14,90.76051 7.10542736e-14,82.537931 C7.10542736e-14,74.3277661 3.39643761,66.9108817 8.86089926,61.6156913 L8.53228246,61.939179 C23.2197921,47.2516694 37.3330706,57.1702682 47.2516694,47.2516694 C57.1702682,37.3330706 47.2516694,23.2197921 61.939179,8.53228246 L62.2578831,8.21840493 C67.5024743,3.13148225 74.6545043,1.42108547e-14 82.537931,1.42108547e-14 Z" id="Combined-Shape" fill="#17246D"></path>
                <circle id="Oval-Copy-40" fill="#1BFAAD" cx="135.944828" cy="82.537931" r="29.1310345"></circle>
            </g>
        </g>
    </g>
</svg>